<?xml version="1.0" encoding="UTF-8"?>
<svg width="42px" height="42px" viewBox="0 0 42 42" version="1.1" xmlns="http://www.w3.org/2000/svg" xmlns:xlink="http://www.w3.org/1999/xlink">
    <!-- Generator: Sketch 48.2 (47327) - http://www.bohemiancoding.com/sketch -->
    <title>Artboard Copy</title>
    <desc>Created with Sketch.</desc>
    <defs></defs>
    <g id="bug补充" stroke="none" stroke-width="1" fill="none" fill-rule="evenodd">
        <rect id="Rectangle-21" fill="#FFFFFF" x="0" y="0" width="42" height="42" rx="2"></rect>
        <g id="Artboard-Copy">
            <g id="Group" transform="translate(6.000000, 6.000000)">
                <g id="logo-mysql" transform="translate(2.000000, 1.000000)">
                    <path d="M6.99115686,4.48402999 C6.67778642,4.48402999 6.4567695,4.52087556 6.2337792,4.57422489 L6.2337792,4.61030285 L6.26969445,4.61030285 C6.41888088,4.8970075 6.67778642,5.0962039 6.86091474,5.34721439 C7.00970649,5.63468666 7.13915926,5.9213913 7.286767,6.20847976 C7.30492196,6.1912084 7.32268225,6.1724018 7.32268225,6.1724018 C7.58316649,5.99354723 7.71222459,5.70607496 7.71222459,5.27429085 C7.6005321,5.14801799 7.58316649,5.02328036 7.49002364,4.8970075 C7.37951517,4.71776912 7.13915926,4.62795802 6.99115686,4.48402999" id="Fill-3" fill="#5B7F93"></path>
                    <path d="M25.8324554,20.0950405 C24.35401,20.0589625 23.2090634,20.2025067 22.2488238,20.5978291 C21.9717633,20.7056792 21.5289401,20.7056792 21.4910514,21.0468846 C21.6398432,21.1904288 21.6576035,21.4237841 21.7878456,21.6222129 C22.0088625,21.9814573 22.3960368,22.4654393 22.7476905,22.717985 C23.1356542,23.0054573 23.5236178,23.2917781 23.9305258,23.5431724 C24.6504095,23.9761079 25.4634361,24.2263508 26.1643755,24.6577511 C26.5720728,24.9091454 26.9770074,25.231928 27.3847047,25.5021289 C27.587172,25.646057 27.7154407,25.8797961 27.9751356,25.9684558 L27.9751356,25.9143388 C27.8448935,25.7531394 27.8085836,25.5194003 27.6799201,25.3390105 C27.4956078,25.1605397 27.3105061,24.9978051 27.1254044,24.8189505 C26.5894384,24.1185007 25.9236249,23.5082459 25.2049252,23.0054573 C24.6133102,22.6089835 23.3195719,22.0701169 23.0804,21.4076642 C23.0804,21.4076642 23.061061,21.3884738 23.042906,21.3708186 C23.4494193,21.3343568 23.9305258,21.1904288 24.3180948,21.0814273 C24.9452303,20.9202279 25.5179009,20.9566897 26.1643755,20.7954903 C26.4603803,20.7229505 26.7559904,20.6327556 27.0527846,20.5444798 L27.0527846,20.3817451 C26.7184965,20.0589625 26.4793246,19.6271784 26.1284602,19.322051 C25.1871649,18.5317901 24.1515427,17.7603358 23.0804,17.1124678 C22.50694,16.7532234 21.7681119,16.5206357 21.158342,16.2143568 C20.9377198,16.1065067 20.5687004,16.0531574 20.438853,15.8727676 C20.1061436,15.4774453 19.9206472,14.9573853 19.6810807,14.4895232 C19.1459039,13.5027526 18.6276982,12.4073643 18.16672,11.3637901 C17.8344053,10.6637241 17.6311486,9.96365817 17.2246354,9.31655772 C15.3211271,6.26221289 13.2530401,4.41302549 10.0759217,2.59838081 C9.39234792,2.22032984 8.57971604,2.05913043 7.71222459,1.86146927 C7.24966773,1.84266267 6.78829489,1.80773613 6.32652738,1.79008096 C6.03052256,1.6638081 5.73451774,1.32221889 5.47640154,1.16063568 C4.42301907,0.514302849 1.70885225,-0.886596702 0.932530283,0.963358321 C0.4336635,2.13167016 1.6713583,3.2807916 2.09642122,3.87377511 C2.41018632,4.28636882 2.81709428,4.75423088 3.03771653,5.22055772 C3.16716931,5.52606897 3.20426858,5.850003 3.33411602,6.17278561 C3.62933149,6.96304648 3.90599733,7.84350225 4.29475032,8.58041379 C4.49721761,8.95769715 4.71862922,9.3534033 4.97714009,9.69307346 C5.12632652,9.89188606 5.38404804,9.98054573 5.43969695,10.3048636 C5.18197542,10.6637241 5.16184709,11.2025907 5.01423936,11.65203 C4.34960988,13.681991 4.60772608,16.1967016 5.55020541,17.6874123 C5.84502621,18.1364678 6.54793898,19.1247736 7.49002364,18.7467226 C8.32120516,18.42394 8.13649816,17.39994 8.37645939,16.5022129 C8.43171363,16.2853613 8.39461436,16.1429685 8.50512282,15.9994243 L8.50512282,16.0358861 C8.76363369,16.537907 9.02293391,17.0218891 9.26289515,17.5262129 C9.83635515,18.4055172 10.8329047,19.322051 11.6648756,19.9323058 C12.1069094,20.2566237 12.4581685,20.8127616 13.0122895,21.0108066 L13.0122895,20.9566897 L12.9759796,20.9566897 C12.8646818,20.7954903 12.6989191,20.7229505 12.5509166,20.5978291 C12.2186019,20.2742789 11.8499772,19.8789565 11.5902823,19.520096 C10.8147497,18.5145187 10.1303866,17.39994 9.52219537,16.2504348 C9.22579588,15.6923778 8.96767968,15.0821229 8.72732377,14.5256012 C8.61681531,14.3110525 8.61681531,13.9867346 8.43171363,13.8792684 C8.15386377,14.2742069 7.74853451,14.6157961 7.54567254,15.0993943 C7.1944135,15.8727676 7.1577089,16.8246117 7.02746678,17.8129175 C6.95405759,17.8317241 6.99115686,17.8129175 6.95405759,17.8486117 C6.36362665,17.7050675 6.16037001,17.1124678 5.93816906,16.6108306 C5.38404804,15.333901 5.29090519,13.2862849 5.77201169,11.8132294 C5.90067511,11.4367136 6.45637482,10.2511304 6.2337792,9.89188606 C6.12208672,9.54914543 5.75306738,9.3534033 5.55020541,9.08281859 C5.31063885,8.74161319 5.05054928,8.31136432 4.88597061,7.93331334 C4.44235805,6.92773613 4.21936776,5.81354123 3.7406293,4.80796402 C3.51882303,4.34010195 3.13007004,3.85496852 2.81709428,3.42471964 C2.46544056,2.93958621 2.07787158,2.59838081 1.8004164,2.0242039 C1.70885225,1.82615892 1.57939947,1.5026087 1.72661254,1.28767616 C1.76292246,1.14374813 1.83791035,1.08963118 1.98591275,1.05316942 C2.22468997,0.855892054 2.90905311,1.10690255 3.14861967,1.21475262 C3.83258813,1.48341829 4.40525878,1.73634783 4.97714009,2.11286357 C5.23604563,2.29286957 5.51310614,2.63407496 5.84502621,2.72465367 L6.2337792,2.72465367 C6.82460481,2.8493913 7.49002364,2.75958021 8.04453933,2.92193103 C9.02293391,3.22705847 9.90936967,3.67611394 10.7042413,4.16124738 C13.1231926,5.65234183 15.1182651,7.77249775 16.4660737,10.3048636 C16.6882746,10.7174573 16.7814175,11.0951244 16.9842794,11.5253733 C17.3722431,12.4073643 17.8529549,13.3054753 18.2401292,14.1667406 C18.6276982,15.0111184 18.9979015,15.8727676 19.5528119,16.5743688 C19.8290831,16.9508846 20.9377198,17.1485457 21.4365865,17.3462069 C21.8052112,17.5074063 22.3786712,17.6513343 22.7113806,17.8486117 C23.3393055,18.2255112 23.9660464,18.6572954 24.558056,19.0710405 C24.8528768,19.2863568 25.7768065,19.7350285 25.8324554,20.0950405" id="Fill-9" fill="#196D80"></path>
                </g>
            </g>
        </g>
    </g>
</svg>