<?xml version="1.0" encoding="UTF-8"?>
<svg width="42px" height="42px" viewBox="0 0 42 42" version="1.1" xmlns="http://www.w3.org/2000/svg" xmlns:xlink="http://www.w3.org/1999/xlink">
    <!-- Generator: Sketch 48.2 (47327) - http://www.bohemiancoding.com/sketch -->
    <title>Artboard Copy 11</title>
    <desc>Created with Sketch.</desc>
    <defs></defs>
    <g id="bug补充" stroke="none" stroke-width="1" fill="none" fill-rule="evenodd">
        <g id="Artboard-Copy-11">
            <rect id="Rectangle-21" fill="#FFFFFF" x="0" y="0" width="42" height="42" rx="2"></rect>
            <g id="Oracle-2" transform="translate(4.000000, 19.000000)" fill="#FF0000" fill-rule="nonzero">
                <path d="M14.1934612,2.60201291 L16.3661933,2.60201291 L15.2185169,0.871915441 L13.1115303,3.99926794 L12.1514374,4 L14.7160335,0.24454159 C14.8287749,0.0898088093 15.0167658,-0.00195304221 15.2169516,3.41640625e-05 C15.4188841,3.41640625e-05 15.6041195,0.0891012422 15.7134344,0.237953066 L18.286901,4 L17.3260253,3.99926794 L16.87546,3.30015239 L14.6737685,3.30015239 L14.193722,2.60201291 L14.1934612,2.60201291 Z M24.1614697,3.30088445 L24.1614697,0.0390772656 L23.3466952,0.0390772656 L23.3466952,3.61981779 C23.3466952,3.71888966 23.3897428,3.81356918 23.4654023,3.88433481 C23.5452361,3.95827268 23.6506377,3.99902392 23.763866,3.99902392 L27.4766603,3.99902392 L27.9556632,3.30112847 L24.1614697,3.30112847 L24.1614697,3.30088445 Z M10.6914699,2.71719007 C11.4746174,2.70730169 12.1039338,2.11069166 12.1039338,1.37813367 C12.1039338,0.64557567 11.4746174,0.0489656467 10.6914699,0.0390772656 L7.12816841,0.0390772656 L7.12816841,3.99926794 L7.94216026,3.99926794 L7.94216026,0.736972719 L10.6353775,0.736972719 C10.8171889,0.736778028 10.9916098,0.804261151 11.1201455,0.924528538 C11.2486811,1.04479592 11.3207647,1.20796045 11.3204873,1.37801166 C11.3206951,1.54806541 11.2485975,1.71121719 11.1200845,1.8315092 C10.9915714,1.9518012 10.8171917,2.01935951 10.6353775,2.01929461 L8.34080755,2.01856255 L10.7705211,3.99926794 L11.9534182,3.99926794 L10.3186512,2.71645801 L10.6914699,2.71719007 Z M2.1171615,3.99926794 C0.947957536,3.99926794 0.000130447488,3.11274906 0.000130447488,2.0191726 C0.000130447488,0.925596145 0.947957536,0.0390772656 2.1171615,0.0390772656 L4.57818238,0.0390772656 C5.74735651,0.03921202 6.695083,0.925746058 6.695083,2.01929461 C6.6952214,2.54452318 6.47226087,3.04828762 6.07525749,3.41974895 C5.67825411,3.79121029 5.13973374,3.99993529 4.57818238,4 L2.1171615,3.99926794 Z M4.52339447,3.30137249 C4.88693494,3.30143726 5.2356018,3.16637459 5.49263926,2.92591729 C5.74967673,2.68545998 5.89401343,2.35932021 5.89387499,2.01929461 C5.89401343,1.67926902 5.74967673,1.35312924 5.49263926,1.11267194 C5.2356018,0.872214639 4.88693494,0.737151971 4.52339447,0.737216738 L2.17168852,0.737216738 C1.42507131,0.750842087 0.827431445,1.32083786 0.827431445,2.01929461 C0.827431445,2.71775137 1.42507131,3.28774714 2.17168852,3.30137249 L4.52339447,3.30137249 Z M19.9855872,3.99926794 C19.2236446,4.00717941 18.5159332,3.63151521 18.1324992,3.0156202 C17.7490653,2.39972518 17.7490653,1.63862003 18.1324992,1.02272501 C18.5159332,0.406829996 19.2236446,0.0311657987 19.9855872,0.0390772656 L22.9102181,0.0390772656 L22.4309544,0.737216738 L20.040636,0.737216738 C19.5445424,0.728163306 19.081934,0.970526565 18.8310508,1.37092553 C18.5801676,1.7713245 18.5801676,2.26726473 18.8310508,2.6676637 C19.081934,3.06806266 19.5445424,3.31042592 20.040636,3.30137249 L22.9759636,3.30137249 L22.4977434,3.99926794 L19.9853263,3.99926794 L19.9855872,3.99926794 Z M29.9452471,3.30137249 C29.3326249,3.3013245 28.7944761,2.92093038 28.6272064,2.36970646 L32.1075434,2.36970646 L32.5868072,1.67156698 L28.6261629,1.67132296 C28.7926267,1.11878476 29.331492,0.737088919 29.9452471,0.736972719 L32.334261,0.737216738 L32.8143075,0.0390772656 L29.8896765,0.0390772656 C28.7296397,0.0511222591 27.7960169,0.934103505 27.7960169,2.0191726 C27.7960169,3.1042417 28.7296397,3.98722295 29.8896765,3.99926794 L32.4020937,3.99926794 L32.8803139,3.30137249 L29.9452471,3.30137249 Z M33.2502627,0.46074277 C33.2502627,0.267619956 33.4176466,0.111062982 33.624125,0.111062982 C33.8306035,0.111062982 33.9979873,0.267619956 33.9979873,0.46074277 C33.9979873,0.653865583 33.8306035,0.810422557 33.624125,0.810422557 C33.4176466,0.810422557 33.2502627,0.653865583 33.2502627,0.46074277 Z M33.579512,0.197933887 C33.6528235,0.197933887 33.6830873,0.198665945 33.7190907,0.211354953 C33.8130129,0.240881301 33.822666,0.321651719 33.822666,0.351178066 C33.8223097,0.364994658 33.8203857,0.378736796 33.8169263,0.39217332 C33.8081007,0.427918241 33.7842013,0.458808409 33.750659,0.477824129 C33.7451802,0.481728437 33.7420495,0.484168633 33.7266567,0.489537059 L33.8505817,0.696953539 L33.730831,0.696953539 L33.6222988,0.506130379 L33.5500309,0.506130379 L33.5500309,0.69670952 L33.445673,0.69670952 L33.445673,0.197933887 L33.579512,0.197933887 Z M33.61682,0.423407805 C33.64891,0.422919766 33.6846526,0.42072359 33.7055242,0.39217332 C33.7140661,0.37940817 33.7182519,0.364513772 33.7175254,0.34946993 C33.7179516,0.323681057 33.7022501,0.300031028 33.6773476,0.288953121 C33.6533452,0.280168422 33.6288211,0.280168422 33.579512,0.280168422 L33.5500309,0.280168422 L33.5500309,0.423407805 L33.61682,0.423407805 Z" id="Shape"></path>
            </g>
        </g>
    </g>
</svg>