<?xml version="1.0" encoding="UTF-8"?>
<svg width="42px" height="42px" viewBox="0 0 42 42" version="1.1" xmlns="http://www.w3.org/2000/svg" xmlns:xlink="http://www.w3.org/1999/xlink">
    <!-- Generator: Sketch 48.2 (47327) - http://www.bohemiancoding.com/sketch -->
    <title>Artboard Copy 10</title>
    <desc>Created with Sketch.</desc>
    <defs></defs>
    <g id="bug补充" stroke="none" stroke-width="1" fill="none" fill-rule="evenodd">
        <g id="Artboard-Copy-10">
            <rect id="Rectangle-21" fill="#FFFFFF" x="0" y="0" width="42" height="42" rx="2"></rect>
            <g id="dbs-postgresql" transform="translate(8.000000, 7.000000)" fill="#006A93" fill-rule="nonzero">
                <path d="M21.3530806,9.23260274 C21.4090403,8.86761644 21.4615706,8.51808219 21.4681573,8.13309589 C20.5547298,8.01994521 19.5065202,8.04564384 19.0926472,8.64115068 C18.2874919,9.79939726 19.8600242,12.637863 20.5314859,13.8499726 C20.7040464,14.1613699 20.8287581,14.3863562 20.8860786,14.5265205 C20.9456399,14.671704 21.0139005,14.8131147 21.0904839,14.9499726 C21.5524778,13.9606027 21.4332641,12.9580822 21.3170988,11.984274 C21.2595605,11.502137 21.1998448,11.0035616 21.2154677,10.5240548 C21.2309819,10.0312329 21.2931472,9.62520548 21.3530806,9.23260274 Z M20.583744,9.00728767 C20.5095484,9.0859726 20.3527742,9.22246575 20.1388972,9.25232877 C20.1114073,9.25616438 20.0833185,9.25813699 20.0554476,9.25813699 C19.7401573,9.25813699 19.4680887,9.01046575 19.445498,8.84991781 C19.4195867,8.65621918 19.7335706,8.50887671 20.057625,8.46345205 C20.12688,8.45365474 20.1967218,8.44865668 20.2666573,8.44849315 C20.5466734,8.44849315 20.7321895,8.53210959 20.7508609,8.66657534 C20.7628911,8.75353425 20.6974597,8.88723288 20.583744,9.00728767 Z M17.3670423,1.81978082 C17.9441129,1.69945205 18.7332097,1.58717808 19.616752,1.60668493 C21.8554113,1.65654795 23.6259798,2.49950685 24.8797379,4.11216438 C25.8414496,5.3490411 24.7827339,10.9774247 21.7170907,15.8328767 C21.6869879,15.7941918 21.6560685,15.7550685 21.6242238,15.7150685 C21.6113117,15.6986865 21.598356,15.6823394 21.5853569,15.6660274 C22.3775565,14.3492055 22.2225242,13.0465205 22.0846935,11.8913973 C22.0280262,11.4173151 21.9746794,10.9695342 21.9882883,10.5490411 C22.0023871,10.1030137 22.0609597,9.72082192 22.117627,9.35106849 C22.1871956,8.89556164 22.258125,8.42421918 22.2384194,7.86860274 C22.2531169,7.81035616 22.2590504,7.74153425 22.2513206,7.65972603 C22.2015121,7.12668493 21.597006,5.53210959 20.3650766,4.08854795 C19.6913831,3.29912329 18.7086593,2.41572603 17.3670423,1.81978082 Z M8.89083871,15.9847671 C8.97803028,16.0761987 9.06966671,16.1632277 9.16541129,16.2455342 C8.78719355,16.6530959 7.96521774,17.5546301 7.09038508,18.6139726 C6.47134476,19.3632329 6.04380847,19.22 5.90320161,19.1726575 C4.98716129,18.8650411 3.92425403,16.9161096 2.98714718,13.8254247 C2.17627621,11.1513425 1.70230645,8.46241096 1.66490927,7.70827397 C1.54645766,5.32361644 2.12069758,3.66158904 3.37178831,2.76849315 C5.4076754,1.3150137 8.75529435,2.1850411 10.1003952,2.62630137 C10.0809617,2.64542466 10.0609294,2.66339726 10.041877,2.68284932 C7.83457258,4.92679452 7.88693952,8.76054795 7.8924375,8.99479452 C7.89211089,9.08515068 7.89967742,9.21309589 7.91002016,9.38926027 C7.94796169,10.0339726 8.01867339,11.2340822 7.82983669,12.5932603 C7.65444556,13.8562192 8.04110081,15.092274 8.89083871,15.9847671 Z M21.2261915,16.4700822 C20.7888024,16.5971507 20.003625,16.8901918 20.0752077,18.3552877 C20.0176694,19.0899178 19.6070625,22.5316164 19.3986835,23.7480548 C19.1235665,25.3548493 18.5359899,25.9533151 16.8848528,26.3096438 C15.1724758,26.6791233 14.5666633,25.7995068 14.1670524,24.7943562 C13.9093004,24.1452055 13.7827923,21.2187945 13.8723931,17.9871233 C13.8735911,17.9453642 13.8679449,17.9036918 13.8556815,17.8637808 C13.845255,17.7865497 13.8292633,17.7101839 13.8078327,17.6352877 C13.6743569,17.1649315 13.348506,16.7717808 12.9577137,16.6086575 C12.8353972,16.557589 12.6504798,16.4807123 12.4230484,16.4807123 C12.3393343,16.4806592 12.2559554,16.4913574 12.1749315,16.5125479 C12.2480383,16.2097534 12.3746552,15.8680548 12.5118327,15.4978082 L12.5694798,15.3420274 C12.6342581,15.1663014 12.715748,14.9844384 12.8018105,14.7916712 C13.2669617,13.7516164 13.9040202,12.3267945 13.2126351,9.10816438 C12.953631,7.90263014 12.0887056,7.3139726 10.7778448,7.45063014 C9.99179637,7.53254795 9.27286694,7.85178082 8.91419153,8.03479452 C8.83678427,8.07424658 8.76574597,8.11243836 8.69966129,8.14958904 C8.79857056,6.93665753 9.17515524,4.67030137 10.5913488,3.23052055 C11.4822399,2.32471233 12.6687702,1.87736986 14.1159375,1.90142466 C16.9636754,1.94849315 18.7898226,3.41956164 19.820504,4.64542466 C20.708619,5.70186301 21.1894476,6.76591781 21.3813871,7.33983562 C19.938629,7.19210959 18.956504,7.4789589 18.4589637,8.1950137 C17.3762419,9.75276712 19.0511129,12.776 19.8560504,14.2290411 C20.0035706,14.4954521 20.1311673,14.7253699 20.171123,14.8232877 C20.4330665,15.4626849 20.7725262,15.8896438 21.0205887,16.2012603 C21.0964173,16.2968219 21.1699597,16.389589 21.2261915,16.4700822 Z M13.0646794,17.8494247 C13.0963065,17.9610411 13.1320706,18.1727671 13.0153065,18.3372055 C12.4269677,19.1664658 11.6170766,19.5870685 10.6081694,19.5870685 C10.2763851,19.5870685 9.92413306,19.5406027 9.56083065,19.4490959 C9.34831452,19.3956164 9.15719153,19.3027945 9.04494556,19.2259178 C9.13862903,19.1814247 9.30536492,19.1211507 9.59452621,19.0612603 C10.9940625,18.7710137 11.2101169,18.566411 11.6820726,17.9632329 C11.7903448,17.8249315 11.9130968,17.6681644 12.0830988,17.4769863 C12.2114577,17.3324384 12.325881,17.2590685 12.4231028,17.2590685 C12.4913105,17.2590685 12.5682278,17.2886575 12.6616935,17.3275616 C12.83175,17.3987397 12.997506,17.6131507 13.0646794,17.8494247 Z M25.114246,17.3660822 C25.120125,17.3647671 25.1261129,17.3633973 25.1317742,17.3623562 C24.9174617,17.5641644 24.551002,17.8346301 24.030871,18.0778082 C23.5837923,18.2866849 22.8359577,18.4433425 22.125248,18.4769315 C21.3402883,18.5136438 20.9406774,18.3885479 20.8467218,18.3111781 C20.8027923,17.398411 21.1404556,17.3029589 21.4977157,17.2019178 C21.5536754,17.1860274 21.6086008,17.1705753 21.6612944,17.152 C21.6942278,17.1787397 21.7302641,17.2056438 21.7697843,17.2317808 C22.4006371,17.6509589 23.5259274,17.6960548 25.114246,17.3660822 Z M11.7872419,15.2257534 L11.8446714,15.0710685 C11.9185403,14.8706301 12.0051472,14.6772055 12.096871,14.4721096 C12.5412278,13.478137 13.0944556,12.2409315 12.4569073,9.27260274 C12.3336109,8.69923288 12.0373185,8.36608219 11.5509919,8.25391781 C10.4854173,8.00816438 8.99105444,8.81408219 8.66863306,9.10186301 C8.67162702,9.16684932 8.67647177,9.24926027 8.68191532,9.34317808 C8.72154435,10.0148493 8.79519556,11.2652055 8.59574395,12.7010411 C8.45334073,13.7263562 8.76438508,14.7269041 9.4490746,15.445863 C9.98771371,16.0116164 10.695756,16.3246027 11.4237218,16.3267945 C11.5074435,15.9811507 11.6423347,15.6174247 11.7872419,15.2257534 Z M10.783996,9.22969863 C10.7340786,9.16306849 10.652752,9.03380822 10.6691915,8.9169863 C10.6924899,8.74580822 10.8971673,8.64312329 11.2167036,8.64312329 C11.2875242,8.64312329 11.3608488,8.64843836 11.434881,8.65884932 C11.7797843,8.70712329 12.1357379,8.87156164 12.1014435,9.11835616 C12.0756411,9.30531507 11.7815262,9.58257534 11.4282944,9.58257534 C11.3974294,9.58257534 11.3662379,9.58038356 11.3358629,9.57605479 C11.131621,9.54767123 10.9252016,9.41813699 10.783996,9.22969863 Z M26.9555262,16.8617534 C26.840504,16.3366027 26.368004,15.7232877 25.4150565,15.7232877 C25.2238246,15.7232877 25.0165887,15.7469589 24.781373,15.796 C24.329504,15.8896986 23.9264093,15.9480548 23.5799274,15.9697534 C24.7934577,13.8753425 25.7698669,11.5173699 26.3361593,9.31068493 C26.8602641,7.26810959 27.2567722,4.53967123 26.1699133,3.14158904 C24.572123,1.08635616 22.2355343,5.47945205e-05 19.4125645,5.47945205e-05 C17.8215242,5.47945205e-05 16.5221492,0.357863014 16.1286895,0.478958904 C15.5082339,0.370027397 14.8403105,0.308986301 14.1427742,0.297589041 C14.0965804,0.296842576 14.0503812,0.296477267 14.0041815,0.296493151 C12.7489536,0.296493151 11.6240988,0.583452055 10.6599919,1.14947945 C9.78194758,0.853534247 8.08688105,0.37430137 6.321375,0.37430137 C4.33551411,0.37430137 2.77141935,0.963726027 1.67280242,2.12641096 C0.456441532,3.41364384 -0.0973306452,5.3350137 0.0270544355,7.83720548 C0.0790947581,8.88646575 0.679681452,12.0218082 1.53954435,14.7443836 C2.8679879,18.9511781 4.33132258,20.9102466 6.14451411,20.9102466 C6.71222177,20.9102466 7.25096976,20.7102466 7.74753024,20.3155068 C8.18295968,20.7931507 8.81495565,21.0088219 9.16252621,21.0963836 C9.65560282,21.2206027 10.1417661,21.2835616 10.607625,21.2835616 C11.2302036,21.2835616 11.8165282,21.174137 12.352881,20.9580274 C12.3563649,21.0753973 12.3595766,21.1865753 12.3622984,21.2869041 C12.3686673,21.5149589 12.3748185,21.7386301 12.3832016,21.9477808 C12.4398145,23.3697534 12.5364375,24.4761644 12.8235302,25.2563288 C12.8386633,25.2972603 12.8588589,25.3597808 12.8808508,25.4273973 C13.0063246,25.8146301 13.1959234,26.3993973 13.6321149,26.9303014 C14.2071169,27.6300822 15.0265343,28 16.0014194,28 C16.3127903,28 16.6463165,27.9622466 16.9929617,27.8872877 C18.0407359,27.6614247 19.2310222,27.3161644 20.0968185,26.0753973 C20.908506,24.912 21.3022379,23.1712877 21.3735484,20.4311233 L21.4049577,20.1614795 L21.5560161,20.1739178 C21.6517137,20.1783014 21.7507319,20.180274 21.8504032,20.180274 C22.8668226,20.180274 23.9931472,19.9608219 24.7204052,19.6209315 C25.3245847,19.338411 27.272123,18.3049315 26.9555262,16.8617534 Z M24.3567218,18.7836712 C23.7314214,19.0758356 22.7350343,19.2606027 21.871252,19.2606027 C21.4569435,19.2606027 21.0738266,19.2177534 20.7760645,19.1244932 C20.6350766,20.4289315 20.3353548,22.8613699 20.1608347,23.8807123 C19.8341129,25.7867397 18.9903085,26.6513425 17.0469073,27.0708493 C16.7160484,27.1420274 16.4152379,27.173863 16.1420806,27.1740822 C14.2797339,27.1743014 13.6904153,25.690411 13.4492117,25.0835068 C13.1545524,24.3418082 13.0521593,21.908 13.0728992,19.4379726 C12.4043226,20.0470685 11.566125,20.365589 10.6081694,20.365589 C10.2131855,20.365589 9.79773387,20.3114521 9.3733004,20.2044932 C9.25054839,20.1735342 8.17381452,19.8826849 8.18818548,19.1897534 C8.20119556,18.5556712 9.10014315,18.3690959 9.43851411,18.2988493 C10.6281472,18.0521644 10.7050101,17.9540822 11.074627,17.4817534 C11.1625128,17.3683864 11.2524,17.2566061 11.344246,17.1464658 C11.3430484,17.1323288 11.3414698,17.118411 11.3406532,17.104274 C10.8071855,17.089863 10.285748,16.9466849 9.81101613,16.6902466 C9.48990121,17.0343562 8.61833468,17.9814247 7.68503831,19.1116712 C7.12310081,19.791726 6.58304637,19.9915616 6.1425,19.9915616 C5.9628629,19.9917808 5.79982863,19.9584658 5.65840524,19.9108493 C4.45091734,19.505589 3.3031996,17.5345205 2.24747782,14.0527671 C1.44531653,11.4074521 0.937106855,8.64531507 0.892524194,7.74723288 C0.759864919,5.07835616 1.44406452,3.18936986 2.92601613,2.13243836 C5.57941935,0.240164384 9.86692137,1.69326027 10.8022319,2.0460274 C11.7244234,1.41315068 12.8377379,1.10273973 14.1285121,1.12317808 C14.8318185,1.13479452 15.4775323,1.22586301 16.0699536,1.37413699 C16.3514395,1.24980822 17.8033972,0.807671233 19.5199657,0.826684932 C22.0183911,0.853424658 24.0823669,1.82356164 25.4886532,3.63238356 C26.437627,4.85315068 25.8114556,7.8250411 25.4978528,9.0460274 C24.8462056,11.5858082 23.6381734,14.307726 22.1696673,16.5598904 C22.391873,16.7243288 23.0688327,16.9961644 24.957744,16.6036164 C25.5939859,16.4714521 25.976994,16.5881644 26.0959355,16.9501918 C26.3258165,17.6498082 25.0589395,18.4556164 24.3567218,18.7836712 Z" id="Shape"></path>
            </g>
        </g>
    </g>
</svg>