<?xml version="1.0" encoding="UTF-8"?>
<svg width="151px" height="162px" viewBox="0 0 151 162" version="1.1" xmlns="http://www.w3.org/2000/svg" xmlns:xlink="http://www.w3.org/1999/xlink">
    <!-- Generator: Sketch 48.2 (47327) - http://www.bohemiancoding.com/sketch -->
    <title>Group 38</title>
    <desc>Created with Sketch.</desc>
    <defs>
        <path d="M86.5516042,55.0959648 L138.369828,55.0959648 C140.542752,55.0959648 142.304254,56.8574675 142.304254,59.0303911 C142.304254,59.2398884 142.287521,59.449051 142.254216,59.6558839 L133.05017,116.814144 C132.743105,118.721055 131.097258,120.123077 129.165782,120.123077 L12.3093675,120.123077 C10.3778913,120.123077 8.73204476,118.721055 8.42497976,116.814144 L0.489358791,67.5329593 C0.755812023,67.5602231 1.02620204,67.574192 1.29985468,67.574192 L74.1869905,67.574192 C76.6071036,67.574192 78.8926011,66.4605609 80.384028,64.5546247 L85.3228119,58.2432142 C86.0335766,57.334908 86.4593638,56.2398669 86.5515913,55.0959651 Z" id="path-1"></path>
    </defs>
    <g id="3-1数据源详情页-数据预览-copy-2" stroke="none" stroke-width="1" fill="none" fill-rule="evenodd" transform="translate(-525.000000, -406.000000)">
        <g id="Group-4" transform="translate(10.000000, 227.000000)">
            <g id="Group-38" transform="translate(515.000000, 180.000000)">
                <g id="Group-10-Copy-13">
                    <g id="Group-3-Copy" transform="translate(0.000000, 28.061538)">
                        <path d="M23.8251366,44.7546133 L119.085689,44.7546133 C120.302567,44.7546133 121.336438,45.6446547 121.517372,46.8480056 L125.515353,73.4376651 C125.717281,74.7806464 124.792276,76.0330433 123.449294,76.2349719 C123.32827,76.253169 123.206055,76.2623056 123.08367,76.2623056 L19.6747591,76.2623056 C18.3166819,76.2623056 17.2157427,75.1613665 17.2157427,73.8032892 C17.2157427,73.6763074 17.2255786,73.5495163 17.245162,73.4240536 L21.3955395,46.8343941 C21.5824044,45.6372325 22.6134789,44.7546133 23.8251366,44.7546133 Z" id="Rectangle-4" stroke="#8ABAFF" stroke-width="1.96721311" fill="#EAF6FF"></path>
                        <g id="Group-3" transform="translate(12.786885, 0.000000)">
                            <g id="Group" transform="translate(57.540984, 0.000000)">
                                <path d="M2.45901639,-7.14485515e-15 L63.9352848,0.00164199476 C65.2927211,0.00164199476 66.3933945,1.10158097 66.3943006,2.45901694 L66.4199034,35.8959505 C66.42081,37.2540275 65.320606,38.3557013 63.962529,38.3566078 C63.9619819,38.3566082 63.9614347,38.3566083 63.9608876,38.3566083 L2.45901639,38.3549674 C1.10093914,38.3549674 1.94267334e-15,37.2540283 1.77635684e-15,35.8959511 L4.4408921e-16,2.45901639 C2.77772714e-16,1.10093914 1.10093914,-5.07959577e-15 2.45901639,-5.32907052e-15 Z" id="Rectangle-4-Copy" stroke="#8ABAFF" stroke-width="1.96721311" fill="#FFFFFF"></path>
                                <g id="Group-6" transform="translate(35.901639, 8.369231)" fill="#E8F1FF">
                                    <rect id="Rectangle-6" x="0" y="0" width="22.6229508" height="2.95384615"></rect>
                                    <rect id="Rectangle-6-Copy" x="0" y="4.92307692" width="16.7213115" height="2.95384615"></rect>
                                </g>
                                <rect id="Rectangle-6-Copy-2" fill="#8ABAFF" x="35.9016393" y="27.5692308" width="11.3114754" height="2.95384615"></rect>
                                <g id="Group-9" transform="translate(5.901639, 10.338462)">
                                    <g id="Group-8">
                                        <polyline id="Path-2" stroke="#E8F1FF" stroke-width="0.885245902" points="1.42674908 16.0675542 6.65139484 11.1472972 12.1647524 5.60919009 17.737817 9.78533654 23.3300927 1.27215853"></polyline>
                                        <ellipse id="Oval-2" fill="#8ABAFF" cx="6.70640835" cy="11.0453649" rx="1.34128167" ry="1.32544379"></ellipse>
                                        <ellipse id="Oval-2-Copy-4" fill="#8ABAFF" cx="1.34128167" cy="15.9053254" rx="1.34128167" ry="1.32544379"></ellipse>
                                        <ellipse id="Oval-2-Copy" fill="#8ABAFF" cx="12.2205663" cy="5.74358974" rx="1.34128167" ry="1.32544379"></ellipse>
                                        <ellipse id="Oval-2-Copy-2" fill="#8ABAFF" cx="17.7347243" cy="9.56844181" rx="1.34128167" ry="1.32544379"></ellipse>
                                        <ellipse id="Oval-2-Copy-3" fill="#8ABAFF" cx="23.2488823" cy="1.32544379" rx="1.34128167" ry="1.32544379"></ellipse>
                                    </g>
                                    <g id="Group-8" transform="translate(12.295082, 10.647732) scale(1, -1) translate(-12.295082, -10.647732) translate(0.000000, 4.001578)">
                                        <polyline id="Path-2" stroke="#FFEBE0" stroke-width="0.885245902" points="1.35241535 8.83296351 6.65139484 11.6522282 12.341254 1.22537599 17.9160651 3.28691445 23.3300927 9.81863289"></polyline>
                                        <ellipse id="Oval-2" fill="#FFBE9C" cx="6.70640835" cy="11.5502959" rx="1.34128167" ry="1.32544379"></ellipse>
                                        <ellipse id="Oval-2-Copy-5" fill="#FFBE9C" cx="1.34128167" cy="8.89940828" rx="1.34128167" ry="1.32544379"></ellipse>
                                        <ellipse id="Oval-2-Copy" fill="#FFBE9C" cx="12.1609538" cy="1.32544379" rx="1.34128167" ry="1.32544379"></ellipse>
                                        <ellipse id="Oval-2-Copy-2" fill="#FFBE9C" cx="18.0625931" cy="3.29467456" rx="1.34128167" ry="1.32544379"></ellipse>
                                        <ellipse id="Oval-2-Copy-3" fill="#FFBE9C" cx="23.2488823" cy="9.78303748" rx="1.34128167" ry="1.32544379"></ellipse>
                                    </g>
                                </g>
                            </g>
                            <g id="Group-2" transform="translate(0.000000, 16.738462)">
                                <path d="M2.45901639,-7.14485515e-15 L63.9352848,0.00164199476 C65.2927211,0.00164199476 66.3933945,1.10158097 66.3943006,2.45901694 L66.4199034,35.8959505 C66.42081,37.2540275 65.320606,38.3557013 63.962529,38.3566078 C63.9619819,38.3566082 63.9614347,38.3566083 63.9608876,38.3566083 L2.45901639,38.3549674 C1.10093914,38.3549674 1.94267334e-15,37.2540283 1.77635684e-15,35.8959511 L0,2.45901639 C-1.66316496e-16,1.10093914 1.10093914,-5.52368498e-15 2.45901639,-5.77315973e-15 Z" id="Rectangle-4-Copy-2" stroke="#8ABAFF" stroke-width="1.96721311" fill="#FFFFFF"></path>
                                <g id="Group-7" transform="translate(7.377049, 7.876923)">
                                    <g id="Group-5" fill="#FFBE9C">
                                        <rect id="Rectangle-5" x="0" y="1.47692308" width="2.95081967" height="20.6769231"></rect>
                                        <rect id="Rectangle-5-Copy" x="5.28688525" y="8.86153846" width="2.95081967" height="13.2923077"></rect>
                                        <rect id="Rectangle-5-Copy-2" x="10.5737705" y="11.3230769" width="2.95081967" height="10.8307692"></rect>
                                        <rect id="Rectangle-5-Copy-3" x="15.8606557" y="4.43076923" width="2.95081967" height="17.7230769"></rect>
                                        <rect id="Rectangle-5-Copy-4" x="21.147541" y="0" width="2.95081967" height="22.1538462"></rect>
                                    </g>
                                    <g id="Group-6" transform="translate(29.508197, 0.000000)" fill="#E8F1FF">
                                        <rect id="Rectangle-6" x="0" y="0" width="22.6229508" height="2.95384615"></rect>
                                        <rect id="Rectangle-6-Copy" x="0" y="4.92307692" width="16.7213115" height="2.95384615"></rect>
                                    </g>
                                    <rect id="Rectangle-6-Copy-2" fill="#8ABAFF" x="29.5081967" y="19.2" width="11.3114754" height="2.95384615"></rect>
                                </g>
                            </g>
                        </g>
                        <g id="Combined-Shape">
                            <use fill="#FFFFFF" fill-rule="evenodd" xlink:href="#path-1"></use>
                            <path stroke="#8ABAFF" stroke-width="1.96721311" d="M87.3979037,56.0795714 C87.179529,57.0846949 86.7367462,58.0323896 86.0974416,58.8493748 L81.1586576,65.1607853 C79.4808024,67.3049636 76.9096177,68.5577986 74.1869905,68.5577986 L1.65066331,68.5577986 L9.3960767,116.65777 C9.62637546,118.087954 10.8607604,119.13947 12.3093675,119.13947 L129.165782,119.13947 C130.614389,119.13947 131.848774,118.087954 132.079073,116.65777 L141.283119,59.4995107 C141.308098,59.344386 141.320648,59.1875141 141.320648,59.0303911 C141.320648,57.4006984 139.999521,56.0795714 138.369828,56.0795714 L87.3979037,56.0795714 Z"></path>
                        </g>
                        <ellipse id="Oval" fill="#E8F1FF" cx="113.852459" cy="96.2461538" rx="27.295082" ry="27.3230769"></ellipse>
                        <ellipse id="Oval" stroke="#8ABAFF" stroke-width="1.96721311" fill="#EAF6FF" cx="122.459016" cy="104.369231" rx="27.5409836" ry="27.5692308"></ellipse>
                        <g id="Group-21" transform="translate(119.508197, 88.615385)" fill="#FFFFFF" stroke="#8ABAFF" stroke-width="1.96721311">
                            <polygon id="Path" points="5.89804802 32 0 32 0 27.0769231 5.90163934 27.0769231 5.90163934 32"></polygon>
                            <polygon id="Path" points="5.90163934 22.1538462 0 22.1538462 0 0 5.90163934 0"></polygon>
                        </g>
                    </g>
                    <path d="M32.704918,16 L32.704918,41.6047333" id="Line" stroke="#8ABAFF" stroke-width="1.96721311" stroke-linecap="square" stroke-dasharray="0.4918032735586166,3.934426188468933"></path>
                    <path d="M97.6229508,13.0461538 L97.6229508,22.6461538" id="Line-Copy" stroke="#8ABAFF" stroke-width="1.96721311" stroke-linecap="square" stroke-dasharray="0.4918032735586166,3.934426188468933"></path>
                    <path d="M114.344262,0 L114.344262,24.6153846" id="Line-Copy-2" stroke="#8ABAFF" stroke-width="1.96721311" stroke-linecap="square" stroke-dasharray="0.4918032735586166,3.934426188468933"></path>
                </g>
            </g>
        </g>
    </g>
</svg>