<?xml version="1.0" encoding="UTF-8"?>
<svg width="12px" height="12px" viewBox="0 0 12 12" version="1.1" xmlns="http://www.w3.org/2000/svg" xmlns:xlink="http://www.w3.org/1999/xlink">
    <!-- Generator: Sketch 48.2 (47327) - http://www.bohemiancoding.com/sketch -->
    <title>提示 (3) copy</title>
    <desc>Created with Sketch.</desc>
    <defs></defs>
    <g id="3-1数据源详情页-数据预览-copy-2" stroke="none" stroke-width="1" fill="none" fill-rule="evenodd" transform="translate(-1003.000000, -177.000000)">
        <g id="Group-13" transform="translate(932.000000, 156.000000)" fill-rule="nonzero">
            <g id="提示-(3)-copy" transform="translate(72.000000, 22.000000)">
                <path d="M5,0 C2.23875556,0 0,2.23874444 0,5 C0,7.76125556 2.23874444,10 5,10 C7.76125556,10 10,7.76125556 10,5 C10,2.23875556 7.76125556,3.15796771e-16 5,0 Z" id="Shape" stroke="#82C4EB"></path>
                <path d="M3,4.03125 C3,3.625 3.08,3.3 3.16,3.096875 C3.24,2.89375 3.4,2.690625 3.6,2.528125 C3.8,2.325 4,2.203125 4.28,2.121875 C4.52,2.040625 4.76,2 5.04,2 C5.6,2 6.04,2.1625 6.44,2.4875 C6.8,2.8125 7,3.21875 7,3.746875 C7,3.990625 6.92,4.19375 6.84,4.396875 C6.76,4.6 6.56,4.84375 6.24,5.128125 C5.92,5.4125 5.8,5.615625 5.68,5.7375 C5.56,5.859375 5.52,6.021875 5.44,6.184375 C5.36,6.346875 5.4,6.46875 5.4,6.875 L4.6,6.875 C4.6,6.46875 4.64,6.265625 4.68,6.0625 C4.72,5.859375 4.8,5.696875 4.92,5.534375 C5.04,5.371875 5.16,5.16875 5.44,4.884375 C5.72,4.6 5.92,4.396875 6,4.275 C6.08,4.153125 6.16,3.95 6.16,3.665625 C6.16,3.38125 6.04,3.178125 5.84,2.975 C5.64,2.771875 5.36,2.65 5,2.65 C4.2,2.65 3.8,3.21875 3.8,4.03125 L3,4.03125 Z M5.4,8.5 L4.6,8.5 L4.6,7.6875 L5.4,7.6875 L5.4,8.5 Z" id="Shape" stroke="#6DB3E4" stroke-width="0.2" fill="#64B4E2"></path>
            </g>
        </g>
    </g>
</svg>